{
    "asset" : {
        "generator" : "Khronos glTF Blender I/O v3.3.32",
        "version" : "2.0"
    },
    "extensionsUsed" : [
        "KHR_materials_specular"
    ],
    "scene" : 0,
    "scenes" : [
        {
            "name" : "Scene",
            "nodes" : [
                0
            ]
        }
    ],
    "nodes" : [
        {
            "mesh" : 0,
            "name" : "13902_Earth_v1_l3",
            "rotation" : [
                0.007676288485527039,
                0.8539039492607117,
                -0.031327661126852036,
                0.51943039894104
            ],
            "scale" : [
                0.020971033722162247,
                0.020971033722162247,
                0.020971033722162247
            ]
        }
    ],
    "materials" : [
        {
            "doubleSided" : true,
            "extensions" : {
                "KHR_materials_specular" : {
                    "specularColorFactor" : [
                        0,
                        0,
                        0
                    ]
                }
            },
            "name" : "Earth",
            "pbrMetallicRoughness" : {
                "baseColorTexture" : {
                    "index" : 0
                },
                "metallicFactor" : 0,
                "roughnessFactor" : 0.8999999761581421
            }
        }
    ],
    "meshes" : [
        {
            "name" : "13902_Earth_v1_l3",
            "primitives" : [
                {
                    "attributes" : {
                        "POSITION" : 0,
                        "NORMAL" : 1,
                        "TEXCOORD_0" : 2
                    },
                    "indices" : 3,
                    "material" : 0
                }
            ]
        }
    ],
    "textures" : [
        {
            "sampler" : 0,
            "source" : 0
        }
    ],
    "images" : [
        {
            "bufferView" : 4,
            "mimeType" : "image/jpeg",
            "name" : "Earth_diff"
        }
    ],
    "accessors" : [
        {
            "bufferView" : 0,
            "componentType" : 5126,
            "count" : 8249,
            "max" : [
                488.0181884765625,
                493.15631103515625,
                488.0181884765625
            ],
            "min" : [
                -488.0181884765625,
                -493.15631103515625,
                -488.0181884765625
            ],
            "type" : "VEC3"
        },
        {
            "bufferView" : 1,
            "componentType" : 5126,
            "count" : 8249,
            "type" : "VEC3"
        },
        {
            "bufferView" : 2,
            "componentType" : 5126,
            "count" : 8249,
            "type" : "VEC2"
        },
        {
            "bufferView" : 3,
            "componentType" : 5123,
            "count" : 47616,
            "type" : "SCALAR"
        }
    ],
    "bufferViews" : [
        {
            "buffer" : 0,
            "byteLength" : 98988,
            "byteOffset" : 0,
            "target" : 34962
        },
        {
            "buffer" : 0,
            "byteLength" : 98988,
            "byteOffset" : 98988,
            "target" : 34962
        },
        {
            "buffer" : 0,
            "byteLength" : 65992,
            "byteOffset" : 197976,
            "target" : 34962
        },
        {
            "buffer" : 0,
            "byteLength" : 95232,
            "byteOffset" : 263968,
            "target" : 34963
        },
        {
            "buffer" : 0,
            "byteLength" : 683069,
            "byteOffset" : 359200
        }
    ],
    "samplers" : [
        {
            "magFilter" : 9729,
            "minFilter" : 9987
        }
    ],
    "buffers" : [
        {
            "byteLength" : 1042272,
            "uri" : "data:application/octet-stream;base64,"
        }
    ]
}
